<svg width="100" height="129" viewBox="0 0 100 129" fill="none" xmlns="http://www.w3.org/2000/svg">
<path d="M0.650513 53.8754C0.650513 56.641 2.32813 58.9658 5.07095 60.8756C7.81374 62.7854 11.6939 64.3358 16.2883 65.5574C25.4839 68.0025 37.6807 69.1663 49.749 69.1663C61.8173 69.1663 74.014 68.0025 83.2097 65.5574C87.804 64.3358 91.6842 62.7854 94.427 60.8756C97.1698 58.9658 98.8475 56.641 98.8475 53.8754C98.8475 51.1099 97.1698 48.7851 94.427 46.8753C91.6842 44.9655 87.804 43.4151 83.2097 42.1934C74.014 39.7484 61.8173 38.5846 49.749 38.5846C37.6807 38.5846 25.4839 39.7484 16.2883 42.1934C11.6939 43.4151 7.81374 44.9655 5.07095 46.8753C2.32813 48.7851 0.650513 51.1099 0.650513 53.8754ZM5.87647 53.8754C5.87647 53.5053 6.0484 53.0541 6.48785 52.5291C6.92587 52.0059 7.6017 51.4443 8.53229 50.8667C10.3925 49.7121 13.1961 48.5391 16.9221 47.4895C24.3682 45.392 35.4137 43.8105 49.749 43.8105C64.0843 43.8105 75.1298 45.392 82.5759 47.4895C86.3019 48.5391 89.1055 49.7121 90.9657 50.8667C91.8963 51.4443 92.5721 52.0059 93.0101 52.5291C93.4496 53.0541 93.6215 53.5053 93.6215 53.8754C93.6215 54.2456 93.4496 54.6968 93.0101 55.2218C92.5721 55.745 91.8963 56.3066 90.9657 56.8842C89.1055 58.0388 86.3019 59.2117 82.5759 60.2613C75.1298 62.3588 64.0843 63.9403 49.749 63.9403C35.4137 63.9403 24.3682 62.3588 16.9221 60.2613C13.1961 59.2117 10.3925 58.0388 8.53229 56.8842C7.6017 56.3066 6.92587 55.745 6.48785 55.2218C6.0484 54.6968 5.87647 54.2456 5.87647 53.8754Z" fill="black" stroke="black"/>
<path d="M15.5471 116.497H15.864V116.556L15.933 116.673C18.1324 120.412 22.488 123.319 28.3001 125.292C34.123 127.269 41.4698 128.33 49.7491 128.33C58.238 128.33 65.5876 127.269 71.3617 125.238C77.0297 123.243 81.2279 120.295 83.4542 116.446C83.5256 116.422 83.5931 116.389 83.6558 116.347C83.8031 116.249 83.895 116.121 83.9511 116.009C84.0062 115.899 84.0312 115.795 84.0433 115.723C84.0478 115.695 84.0508 115.671 84.0528 115.65L98.8336 54.4154L98.8475 54.3576V54.2981C98.8475 53.6147 98.7347 52.9811 98.4018 52.4484C98.0625 51.9055 97.5324 51.5272 96.8153 51.2882L96.7383 51.2625H96.6572C95.9738 51.2625 95.3401 51.3754 94.8074 51.7083C94.2645 52.0476 93.8863 52.5776 93.6472 53.2948L93.6406 53.3146L93.6357 53.3348L78.8632 114.113C77.6557 116.073 74.8275 118.313 70.0716 120.071C65.2789 121.842 58.5783 123.104 49.7491 123.104C41.1277 123.104 34.5316 121.947 29.7389 120.228C24.9871 118.523 22.0484 116.282 20.6334 114.107L5.86239 53.3348L5.85747 53.3146L5.85088 53.2948C5.62225 52.6089 5.26048 51.9749 4.72569 51.5738C4.16471 51.1531 3.46374 51.0279 2.68285 51.2882C1.99697 51.5168 1.36297 51.8786 0.961877 52.4134C0.544999 52.9692 0.418264 53.6625 0.669165 54.4347L15.4552 116.114L15.5471 116.497Z" fill="black" stroke="black"/>
<path d="M93.6215 53.8755C93.6215 54.623 93.8729 55.2848 94.349 55.7609C94.8252 56.2371 95.487 56.4884 96.2345 56.4884C96.982 56.4884 97.6438 56.2371 98.1199 55.7609C98.5961 55.2848 98.8475 54.623 98.8475 53.8755C98.8475 40.2095 92.8714 26.8864 83.7662 16.9825C74.6628 7.08058 62.3876 0.551025 49.749 0.551025C37.1103 0.551025 24.8352 7.08058 15.7317 16.9825C6.6266 26.8864 0.650513 40.2095 0.650513 53.8755C0.650513 54.623 0.901867 55.2848 1.37803 55.7609C1.85419 56.2371 2.51597 56.4884 3.26349 56.4884C4.01101 56.4884 4.67279 56.2371 5.14895 55.7609C5.62511 55.2848 5.87647 54.623 5.87647 53.8755C5.87647 41.5501 11.2062 29.5171 19.3746 20.5633C27.5447 11.6075 38.5119 5.77698 49.749 5.77698C60.9861 5.77698 71.9532 11.6075 80.1234 20.5633C88.2918 29.5171 93.6215 41.5501 93.6215 53.8755Z" fill="black" stroke="black"/>
</svg>
