<svg width="142" height="28" viewBox="0 0 142 28" fill="none" xmlns="http://www.w3.org/2000/svg">
<path d="M9.64 22.76V18.76H14.96V22.12C14.96 25.64 13.3067 27.4 10 27.4H4.96C1.65333 27.4 2.98023e-08 25.64 2.98023e-08 22.12V6C2.98023e-08 2.48 1.65333 0.72 4.96 0.72H10C13.3067 0.72 14.96 2.48 14.96 6V8.44H9.64V5.32C9.64 5.10667 9.56 4.92 9.4 4.76C9.26667 4.6 9.09333 4.52 8.88 4.52H6.36C6.14667 4.52 5.96 4.6 5.8 4.76C5.66667 4.92 5.6 5.10667 5.6 5.32V22.76C5.6 22.9733 5.66667 23.16 5.8 23.32C5.96 23.48 6.14667 23.56 6.36 23.56H8.88C9.09333 23.56 9.26667 23.48 9.4 23.32C9.56 23.16 9.64 22.9733 9.64 22.76ZM23.4803 27H18.1203V1.12H23.4803V27ZM41.5056 12.36V22.12C41.5056 25.64 39.8523 27.4 36.5456 27.4H32.0256C28.719 27.4 27.0656 25.64 27.0656 22.12V12.36C27.0656 8.84 28.719 7.08 32.0256 7.08H36.5456C39.8523 7.08 41.5056 8.84 41.5056 12.36ZM36.1456 23.24V11.2C36.1456 10.9867 36.0656 10.8 35.9056 10.64C35.7723 10.48 35.599 10.4 35.3856 10.4H33.1856C32.9723 10.4 32.7856 10.48 32.6256 10.64C32.4923 10.8 32.4256 10.9867 32.4256 11.2V23.24C32.4256 23.4533 32.4923 23.64 32.6256 23.8C32.7856 23.96 32.9723 24.04 33.1856 24.04H35.3856C35.599 24.04 35.7723 23.96 35.9056 23.8C36.0656 23.64 36.1456 23.4533 36.1456 23.24ZM54.2316 7.48H59.5916V27H54.7116V26C53.8849 26.9333 52.6316 27.4 50.9516 27.4H50.1116C46.8049 27.4 45.1516 25.64 45.1516 22.12V7.48H50.5116V22.76C50.5116 22.9733 50.5782 23.16 50.7116 23.32C50.8716 23.48 51.0582 23.56 51.2716 23.56H53.4716C53.6849 23.56 53.8582 23.48 53.9916 23.32C54.1516 23.16 54.2316 22.9733 54.2316 22.76V7.48ZM69.0375 7.08C70.3975 7.08 71.4908 7.4 72.3175 8.04V1.12H77.6775V27H73.1575V25.56C72.3308 26.7867 70.9575 27.4 69.0375 27.4H68.1975C64.8908 27.4 63.2375 25.64 63.2375 22.12V12.36C63.2375 8.84 64.8908 7.08 68.1975 7.08H69.0375ZM72.3175 22.76V11.72C72.3175 11.5067 72.2375 11.32 72.0775 11.16C71.9442 11 71.7708 10.92 71.5575 10.92H69.3575C69.1442 10.92 68.9575 11 68.7975 11.16C68.6642 11.32 68.5975 11.5067 68.5975 11.72V22.76C68.5975 22.9733 68.6642 23.16 68.7975 23.32C68.9575 23.48 69.1442 23.56 69.3575 23.56H71.5575C71.7708 23.56 71.9442 23.48 72.0775 23.32C72.2375 23.16 72.3175 22.9733 72.3175 22.76ZM94.1234 13.76C95.3768 14.64 96.0034 16.1467 96.0034 18.28V22.12C96.0034 25.64 94.3501 27.4 91.0434 27.4H86.3234C83.0168 27.4 81.3634 25.64 81.3634 22.12V20H86.3634V22.36C86.3634 22.5733 86.4301 22.76 86.5634 22.92C86.7234 23.08 86.9101 23.16 87.1234 23.16H90.2834C90.4968 23.16 90.6701 23.08 90.8034 22.92C90.9634 22.76 91.0434 22.5733 91.0434 22.36V16.84C91.0434 16.6267 90.9634 16.44 90.8034 16.28C90.6701 16.12 90.4968 16.04 90.2834 16.04H86.1634V11.72H90.0434C90.2568 11.72 90.4301 11.64 90.5634 11.48C90.7234 11.32 90.8034 11.1333 90.8034 10.92V5.88C90.8034 5.66667 90.7234 5.48 90.5634 5.32C90.4301 5.16 90.2568 5.08 90.0434 5.08H87.3634C87.1501 5.08 86.9634 5.16 86.8034 5.32C86.6701 5.48 86.6034 5.66667 86.6034 5.88V8.44H81.6034V6C81.6034 2.48 83.2568 0.72 86.5634 0.72H90.8034C94.1101 0.72 95.7634 2.48 95.7634 6V9.44C95.7634 11.52 95.2168 12.96 94.1234 13.76ZM100.087 24.52C100.087 23.72 100.367 23.04 100.927 22.48C101.487 21.92 102.167 21.64 102.967 21.64C103.767 21.64 104.447 21.92 105.007 22.48C105.567 23.04 105.847 23.72 105.847 24.52C105.847 25.32 105.567 26 105.007 26.56C104.447 27.12 103.767 27.4 102.967 27.4C102.167 27.4 101.487 27.12 100.927 26.56C100.367 26 100.087 25.32 100.087 24.52ZM124.123 15.16H118.763V11.72C118.763 11.5067 118.683 11.32 118.523 11.16C118.389 11 118.216 10.92 118.003 10.92H115.803C115.589 10.92 115.403 11 115.243 11.16C115.109 11.32 115.043 11.5067 115.043 11.72V22.76C115.043 22.9733 115.109 23.16 115.243 23.32C115.403 23.48 115.589 23.56 115.803 23.56H118.003C118.216 23.56 118.389 23.48 118.523 23.32C118.683 23.16 118.763 22.9733 118.763 22.76V19.32H124.123V22.12C124.123 25.64 122.469 27.4 119.163 27.4H114.643C111.336 27.4 109.683 25.64 109.683 22.12V12.36C109.683 8.84 111.336 7.08 114.643 7.08H119.163C122.469 7.08 124.123 8.84 124.123 12.36V15.16ZM141.974 15.16H136.614V11.72C136.614 11.5067 136.534 11.32 136.374 11.16C136.241 11 136.068 10.92 135.854 10.92H133.654C133.441 10.92 133.254 11 133.094 11.16C132.961 11.32 132.894 11.5067 132.894 11.72V22.76C132.894 22.9733 132.961 23.16 133.094 23.32C133.254 23.48 133.441 23.56 133.654 23.56H135.854C136.068 23.56 136.241 23.48 136.374 23.32C136.534 23.16 136.614 22.9733 136.614 22.76V19.32H141.974V22.12C141.974 25.64 140.321 27.4 137.014 27.4H132.494C129.188 27.4 127.534 25.64 127.534 22.12V12.36C127.534 8.84 129.188 7.08 132.494 7.08H137.014C140.321 7.08 141.974 8.84 141.974 12.36V15.16Z" fill="white"/>
</svg>
