<svg width="148" height="25" viewBox="0 0 148 25" fill="none" xmlns="http://www.w3.org/2000/svg">
    <path d="M9.5053 20.184V16.584H14.2933V19.608C14.2933 22.776 12.8053 24.36 9.8293 24.36H5.2933C2.3173 24.36 0.829297 22.776 0.829297 19.608V5.1C0.829297 1.932 2.3173 0.348 5.2933 0.348H9.8293C12.8053 0.348 14.2933 1.932 14.2933 5.1V7.296H9.5053V4.488C9.5053 4.296 9.4333 4.128 9.2893 3.984C9.1693 3.84 9.0133 3.768 8.8213 3.768H6.5533C6.3613 3.768 6.1933 3.84 6.0493 3.984C5.9293 4.128 5.8693 4.296 5.8693 4.488V20.184C5.8693 20.376 5.9293 20.544 6.0493 20.688C6.1933 20.832 6.3613 20.904 6.5533 20.904H8.8213C9.0133 20.904 9.1693 20.832 9.2893 20.688C9.4333 20.544 9.5053 20.376 9.5053 20.184ZM24.6256 6.072H25.5616V10.752H23.1856C22.3696 10.752 21.9616 11.172 21.9616 12.012V24H17.1376V6.432H21.5296V8.124C22.2256 6.756 23.2576 6.072 24.6256 6.072ZM35.8916 6.432H40.7156V24H36.3236V23.1C35.5796 23.94 34.4516 24.36 32.9396 24.36H32.1836C29.2076 24.36 27.7196 22.776 27.7196 19.608V6.432H32.5436V20.184C32.5436 20.376 32.6036 20.544 32.7236 20.688C32.8676 20.832 33.0356 20.904 33.2276 20.904H35.2076C35.3996 20.904 35.5556 20.832 35.6756 20.688C35.8196 20.544 35.8916 20.376 35.8916 20.184V6.432ZM52.277 12.984C55.253 12.984 56.741 14.568 56.741 17.736V19.608C56.741 22.776 55.253 24.36 52.277 24.36H48.281C45.305 24.36 43.817 22.776 43.817 19.608V18.492H48.281V20.076C48.281 20.268 48.341 20.436 48.461 20.58C48.605 20.724 48.773 20.796 48.965 20.796H51.917C52.109 20.796 52.265 20.724 52.385 20.58C52.529 20.436 52.601 20.268 52.601 20.076V17.916C52.601 17.724 52.529 17.556 52.385 17.412C52.265 17.268 52.109 17.196 51.917 17.196H48.209C45.233 17.196 43.745 15.612 43.745 12.444V10.824C43.745 7.656 45.233 6.072 48.209 6.072H51.989C54.965 6.072 56.453 7.656 56.453 10.824V11.472H51.989V10.356C51.989 10.164 51.917 9.996 51.773 9.852C51.653 9.708 51.497 9.636 51.305 9.636H48.569C48.377 9.636 48.209 9.708 48.065 9.852C47.945 9.996 47.885 10.164 47.885 10.356V12.264C47.885 12.456 47.945 12.624 48.065 12.768C48.209 12.912 48.377 12.984 48.569 12.984H52.277ZM65.9792 21.228H67.4192V24.36H64.0352C61.0592 24.36 59.5712 22.776 59.5712 19.608V2.616H64.3952V6.432H67.4192V9.924H64.3952V19.5C64.3952 20.172 64.5272 20.628 64.7912 20.868C65.0552 21.108 65.4512 21.228 65.9792 21.228ZM86.0756 20.184V16.584H90.8636V19.608C90.8636 22.776 89.3756 24.36 86.3996 24.36H81.8636C78.8876 24.36 77.3996 22.776 77.3996 19.608V5.1C77.3996 1.932 78.8876 0.348 81.8636 0.348H86.3996C89.3756 0.348 90.8636 1.932 90.8636 5.1V7.296H86.0756V4.488C86.0756 4.296 86.0036 4.128 85.8596 3.984C85.7396 3.84 85.5836 3.768 85.3916 3.768H83.1236C82.9316 3.768 82.7636 3.84 82.6196 3.984C82.4996 4.128 82.4396 4.296 82.4396 4.488V20.184C82.4396 20.376 82.4996 20.544 82.6196 20.688C82.7636 20.832 82.9316 20.904 83.1236 20.904H85.3916C85.5836 20.904 85.7396 20.832 85.8596 20.688C86.0036 20.544 86.0756 20.376 86.0756 20.184ZM98.5319 24H93.7079V0.707999H98.5319V24ZM114.755 10.824V19.608C114.755 22.776 113.267 24.36 110.291 24.36H106.223C103.247 24.36 101.759 22.776 101.759 19.608V10.824C101.759 7.656 103.247 6.072 106.223 6.072H110.291C113.267 6.072 114.755 7.656 114.755 10.824ZM109.931 20.616V9.78C109.931 9.588 109.859 9.42 109.715 9.276C109.595 9.132 109.439 9.06 109.247 9.06H107.267C107.075 9.06 106.907 9.132 106.763 9.276C106.643 9.42 106.583 9.588 106.583 9.78V20.616C106.583 20.808 106.643 20.976 106.763 21.12C106.907 21.264 107.075 21.336 107.267 21.336H109.247C109.439 21.336 109.595 21.264 109.715 21.12C109.859 20.976 109.931 20.808 109.931 20.616ZM126.208 6.432H131.032V24H126.64V23.1C125.896 23.94 124.768 24.36 123.256 24.36H122.5C119.524 24.36 118.036 22.776 118.036 19.608V6.432H122.86V20.184C122.86 20.376 122.92 20.544 123.04 20.688C123.184 20.832 123.352 20.904 123.544 20.904H125.524C125.716 20.904 125.872 20.832 125.992 20.688C126.136 20.544 126.208 20.376 126.208 20.184V6.432ZM139.533 6.072C140.757 6.072 141.741 6.36 142.485 6.936V0.707999H147.309V24H143.241V22.704C142.497 23.808 141.261 24.36 139.533 24.36H138.777C135.801 24.36 134.313 22.776 134.313 19.608V10.824C134.313 7.656 135.801 6.072 138.777 6.072H139.533ZM142.485 20.184V10.248C142.485 10.056 142.413 9.888 142.269 9.744C142.149 9.6 141.993 9.528 141.801 9.528H139.821C139.629 9.528 139.461 9.6 139.317 9.744C139.197 9.888 139.137 10.056 139.137 10.248V20.184C139.137 20.376 139.197 20.544 139.317 20.688C139.461 20.832 139.629 20.904 139.821 20.904H141.801C141.993 20.904 142.149 20.832 142.269 20.688C142.413 20.544 142.485 20.376 142.485 20.184Z" fill="#fff"/>
</svg>
